<svg width="37" height="37" viewBox="0 0 37 37" fill="none" xmlns="http://www.w3.org/2000/svg">
<path d="M6 24.5C6 25.82 6.585 27.005 7.5 27.83V30.5C7.5 31.325 8.175 32 9 32H10.5C11.325 32 12 31.325 12 30.5V29H24V30.5C24 31.325 24.675 32 25.5 32H27C27.825 32 28.5 31.325 28.5 30.5V27.83C29.415 27.005 30 25.82 30 24.5V9.5C30 4.25 24.63 3.5 18 3.5C11.37 3.5 6 4.25 6 9.5V24.5ZM11.25 26C10.005 26 9 24.995 9 23.75C9 22.505 10.005 21.5 11.25 21.5C12.495 21.5 13.5 22.505 13.5 23.75C13.5 24.995 12.495 26 11.25 26ZM24.75 26C23.505 26 22.5 24.995 22.5 23.75C22.5 22.505 23.505 21.5 24.75 21.5C25.995 21.5 27 22.505 27 23.75C27 24.995 25.995 26 24.75 26ZM27 17H9V9.5H27V17Z" fill="black" fill-opacity="0.54"/>
</svg>
