<?xml version="1.0" ?>
<!DOCTYPE svg  PUBLIC '-//W3C//DTD SVG 1.1//EN'  'http://www.w3.org/Graphics/SVG/1.1/DTD/svg11.dtd'>
<!-- Uploaded to: SVG Repo, www.svgrepo.com, Generator: SVG Repo Mixer Tools -->
<svg width="800px" height="800px" viewBox="0 0 32 32" enable-background="new 0 0 32 32" id="_x3C_Layer_x3E_" version="1.1" xml:space="preserve" xmlns="http://www.w3.org/2000/svg" xmlns:xlink="http://www.w3.org/1999/xlink">
<g id="help_x2C__message_x2C__question_x2C__question_mark">
<g id="XMLID_2695_">
<g id="XMLID_2696_">
<path d="     M21.5,18.5h-11c-1.66,0-3-1.34-3-3v-11c0-1.66,1.34-3,3-3h11c1.66,0,3,1.34,3,3v11C24.5,17.16,23.16,18.5,21.5,18.5z" fill="none" id="XMLID_2704_" stroke="#455A64" stroke-linecap="round" stroke-linejoin="round" stroke-miterlimit="10"/>
<path d="     M26.5,5.521L26.5,5.521c1.657,0,3,1.343,3,3v15c0,1.657-1.343,3-3,3H23l-3.5,4v-4h-14c-1.657,0-3-1.343-3-3v-15     c0-1.657,1.343-3,3-3h0" fill="none" id="XMLID_2703_" stroke="#455A64" stroke-linecap="round" stroke-linejoin="round" stroke-miterlimit="10"/>
<path d="     M16,13v-0.542c0-0.904,0.475-1.743,1.25-2.208l0,0c0.775-0.465,1.25-1.304,1.25-2.208V8c0-1.381-1.119-2.5-2.5-2.5l0,0     c-1.381,0-2.5,1.119-2.5,2.5l0,0" fill="none" id="XMLID_2702_" stroke="#455A64" stroke-linecap="round" stroke-linejoin="round" stroke-miterlimit="10"/>
<line fill="#FFFFFF" id="XMLID_2700_" stroke="#455A64" stroke-linecap="round" stroke-linejoin="round" stroke-miterlimit="10" x1="16" x2="16" y1="15" y2="14.867"/>
<line fill="none" id="XMLID_2699_" stroke="#455A64" stroke-linecap="round" stroke-linejoin="round" stroke-miterlimit="10" x1="18.6" x2="18.5" y1="22.5" y2="22.5"/>
<line fill="none" id="XMLID_2698_" stroke="#455A64" stroke-linecap="round" stroke-linejoin="round" stroke-miterlimit="10" x1="16.1" x2="16" y1="22.5" y2="22.5"/>
<line fill="none" id="XMLID_2697_" stroke="#455A64" stroke-linecap="round" stroke-linejoin="round" stroke-miterlimit="10" x1="13.6" x2="13.5" y1="22.5" y2="22.5"/>
</g>
</g>
<g id="XMLID_1026_">
<g id="XMLID_1052_">
<path d="     M21.5,18.5h-11c-1.66,0-3-1.34-3-3v-11c0-1.66,1.34-3,3-3h11c1.66,0,3,1.34,3,3v11C24.5,17.16,23.16,18.5,21.5,18.5z" fill="none" id="XMLID_2694_" stroke="#263238" stroke-linecap="round" stroke-linejoin="round" stroke-miterlimit="10"/>
<path d="     M26.5,5.521L26.5,5.521c1.657,0,3,1.343,3,3v15c0,1.657-1.343,3-3,3H23l-3.5,4v-4h-14c-1.657,0-3-1.343-3-3v-15     c0-1.657,1.343-3,3-3h0" fill="none" id="XMLID_2621_" stroke="#263238" stroke-linecap="round" stroke-linejoin="round" stroke-miterlimit="10"/>
<path d="     M16,13v-0.542c0-0.904,0.475-1.743,1.25-2.208l0,0c0.775-0.465,1.25-1.304,1.25-2.208V8c0-1.381-1.119-2.5-2.5-2.5l0,0     c-1.381,0-2.5,1.119-2.5,2.5l0,0" fill="none" id="XMLID_2559_" stroke="#263238" stroke-linecap="round" stroke-linejoin="round" stroke-miterlimit="10"/>
<line fill="none" id="XMLID_2558_" stroke="#263238" stroke-linecap="round" stroke-linejoin="round" stroke-miterlimit="10" x1="16" x2="16" y1="15" y2="14.867"/>
<line fill="none" id="XMLID_2557_" stroke="#263238" stroke-linecap="round" stroke-linejoin="round" stroke-miterlimit="10" x1="18.6" x2="18.5" y1="22.5" y2="22.5"/>
<line fill="none" id="XMLID_2556_" stroke="#263238" stroke-linecap="round" stroke-linejoin="round" stroke-miterlimit="10" x1="16.1" x2="16" y1="22.5" y2="22.5"/>
<line fill="none" id="XMLID_1073_" stroke="#263238" stroke-linecap="round" stroke-linejoin="round" stroke-miterlimit="10" x1="13.6" x2="13.5" y1="22.5" y2="22.5"/>
</g>
</g>
</g>
</svg>