<svg width="19" height="20" viewBox="0 0 19 20" fill="none" xmlns="http://www.w3.org/2000/svg">
<path d="M9.12083 15.5C9.44167 15.5 9.713 15.3891 9.93483 15.1673C10.1567 14.9454 10.2673 14.6744 10.2667 14.3542C10.2667 14.0333 10.1561 13.762 9.93483 13.5402C9.71361 13.3183 9.44228 13.2077 9.12083 13.2083C8.8 13.2083 8.52897 13.3193 8.30775 13.5411C8.08653 13.7629 7.97561 14.034 7.975 14.3542C7.975 14.675 8.08592 14.9463 8.30775 15.1682C8.52958 15.39 8.80061 15.5006 9.12083 15.5ZM8.29583 11.9708H9.99167C9.99167 11.4667 10.0491 11.0695 10.164 10.7792C10.2789 10.4889 10.6034 10.0917 11.1375 9.58751C11.5347 9.19029 11.8479 8.81201 12.0771 8.45268C12.3062 8.09334 12.4208 7.6619 12.4208 7.15834C12.4208 6.30279 12.1076 5.64584 11.4812 5.18751C10.8549 4.72918 10.1139 4.50001 9.25833 4.50001C8.3875 4.50001 7.68075 4.72918 7.13808 5.18751C6.59542 5.64584 6.21744 6.19584 6.00417 6.83751L7.51667 7.43334C7.59306 7.15834 7.76508 6.86043 8.03275 6.53959C8.30042 6.21876 8.70894 6.05834 9.25833 6.05834C9.74722 6.05834 10.1139 6.19218 10.3583 6.45984C10.6028 6.72751 10.725 7.02145 10.725 7.34168C10.725 7.64723 10.6333 7.93384 10.45 8.20151C10.2667 8.46918 10.0375 8.71729 9.7625 8.94584C9.09028 9.54168 8.67778 9.99237 8.525 10.2979C8.37222 10.6035 8.29583 11.1611 8.29583 11.9708ZM9.16667 19.1667C7.89861 19.1667 6.70694 18.9259 5.59167 18.4443C4.47639 17.9628 3.50625 17.3098 2.68125 16.4854C1.85625 15.6604 1.20328 14.6903 0.722333 13.575C0.241389 12.4597 0.000611111 11.2681 0 10C0 8.73195 0.240778 7.54029 0.722333 6.42501C1.20389 5.30973 1.85686 4.33959 2.68125 3.51459C3.50625 2.68959 4.47639 2.03662 5.59167 1.55568C6.70694 1.07473 7.89861 0.833955 9.16667 0.833344C10.4347 0.833344 11.6264 1.07412 12.7417 1.55568C13.8569 2.03723 14.8271 2.6902 15.6521 3.51459C16.4771 4.33959 17.1304 5.30973 17.6119 6.42501C18.0935 7.54029 18.3339 8.73195 18.3333 10C18.3333 11.2681 18.0926 12.4597 17.611 13.575C17.1294 14.6903 16.4765 15.6604 15.6521 16.4854C14.8271 17.3104 13.8569 17.9637 12.7417 18.4453C11.6264 18.9268 10.4347 19.1673 9.16667 19.1667ZM9.16667 17.3333C11.2139 17.3333 12.9479 16.6229 14.3687 15.2021C15.7896 13.7813 16.5 12.0472 16.5 10C16.5 7.95279 15.7896 6.21876 14.3687 4.79793C12.9479 3.37709 11.2139 2.66668 9.16667 2.66668C7.11944 2.66668 5.38542 3.37709 3.96458 4.79793C2.54375 6.21876 1.83333 7.95279 1.83333 10C1.83333 12.0472 2.54375 13.7813 3.96458 15.2021C5.38542 16.6229 7.11944 17.3333 9.16667 17.3333Z" fill="black" fill-opacity="0.54"/>
</svg>
