<svg width="32" height="31" viewBox="0 0 32 31" fill="none" xmlns="http://www.w3.org/2000/svg">
<path d="M31.4885 5.2982C31.4762 4.76655 31.3858 4.2396 31.2204 3.73413C30.8771 2.66707 30.1869 1.74506 29.2593 1.11453C28.3317 0.483995 27.2199 0.181016 26.1003 0.253626H21.6292C21.474 0.247985 21.321 0.214567 21.1777 0.154979C21.0508 0.154979 20.9379 0 20.811 0H10.8106C10.6837 0 10.5003 0 10.4862 0C10.3593 0.295909 10.1195 0.197293 9.922 0.197293H6.05726C5.30755 0.186502 4.56073 0.291018 3.84286 0.507252C2.88636 0.8329 2.05289 1.44394 1.45508 2.25787C0.857272 3.07179 0.523936 4.04944 0.5 5.05867C0.5 11.5828 0.5 18.1068 0.5 24.6309C0.502141 25.3167 0.651143 25.9942 0.937163 26.6177C1.26674 27.3638 1.77491 28.0175 2.41687 28.5212C3.05884 29.0249 3.81489 29.3633 4.61853 29.5064C5.1122 29.605 5.11215 29.605 5.09805 30.1123V31H16.6218V24.4759H14.6612C14.4356 25.4764 14.3086 25.575 13.2507 25.5609H5.60598C4.84431 25.5609 4.59029 25.3213 4.59029 24.5463V6.83406C4.59029 6.31269 4.59029 5.79136 4.59029 5.28409C4.58063 5.18299 4.59138 5.08101 4.6218 4.98411C4.65223 4.8872 4.70174 4.7973 4.76747 4.71982C4.83319 4.64234 4.91386 4.57881 5.00456 4.53293C5.09525 4.48705 5.19412 4.45975 5.29554 4.45269C5.4598 4.4387 5.62509 4.4387 5.78935 4.45269H13.4624C14.2804 4.45269 14.5344 4.73455 14.5485 5.55182C14.5485 6.03091 14.5485 6.51 14.5485 6.96091H17.1155C17.1155 6.39728 17.1155 5.86186 17.1155 5.3264C17.1097 5.20883 17.1282 5.09127 17.1697 4.9811C17.2112 4.87093 17.2749 4.77049 17.3569 4.68593C17.4389 4.60138 17.5374 4.53454 17.6463 4.48958C17.7552 4.44463 17.8722 4.42249 17.99 4.42457H25.5784C25.8413 4.40355 26.1055 4.40355 26.3684 4.42457C26.5408 4.43614 26.704 4.50704 26.83 4.62521C26.956 4.74339 27.0371 4.90149 27.0595 5.07269C27.0811 5.26938 27.0811 5.46789 27.0595 5.66457V24.3068C27.0531 24.5438 27.0247 24.7796 26.9748 25.0114C26.9438 25.1868 26.8488 25.3444 26.7081 25.4538C26.5674 25.5631 26.3911 25.6163 26.2133 25.6032C26.0158 25.6032 25.8183 25.6032 25.6208 25.6032H23.8718V28.1677C24.7745 28.1677 25.649 28.1677 26.5094 28.1677C27.3257 28.1151 28.0927 27.759 28.6592 27.1695C29.2258 26.5801 29.5508 25.8001 29.5702 24.9832C29.5702 18.3322 29.5702 11.6955 29.5702 5.04457C29.5487 4.21929 29.2099 3.43391 28.6243 2.85147C28.0386 2.26902 27.2509 1.93417 26.4247 1.91634H22.56L21.1495 1.8318V0.746859H26.3684C27.3127 0.743301 28.2347 1.03385 29.006 1.57817C29.657 2.03845 30.1807 2.65585 30.5284 3.37282C30.8762 4.0898 31.0367 4.88307 30.9949 5.67868V23.3063C30.9949 23.8981 30.9948 24.5041 30.9101 25.0959C30.8367 26.054 30.4387 26.9586 29.7817 27.6605C29.3231 28.1622 28.7624 28.56 28.1372 28.8274C27.512 29.0947 26.8367 29.2253 26.1568 29.2104H23.9142C23.8013 29.5768 23.9141 29.6191 24.2385 29.605H26.6504C27.9194 29.5725 29.1267 29.0515 30.0203 28.1509C30.9139 27.2503 31.4247 26.0397 31.4461 24.7718C31.5167 18.29 31.5026 11.7941 31.4885 5.2982ZM10.4156 1.93045C10.063 1.93045 9.72454 1.93045 9.40012 1.93045C7.98963 1.93045 6.57923 1.93045 5.0841 1.93045C4.33725 1.98075 3.6313 2.28972 3.08803 2.80416C2.54475 3.3186 2.19804 4.00628 2.10781 4.74863C2.09397 4.94566 2.09397 5.14339 2.10781 5.34042C2.10781 11.8504 2.10781 18.3605 2.10781 24.8705C2.10753 25.7529 2.4526 26.6005 3.06926 27.2323C3.68592 27.8642 4.52543 28.2302 5.40849 28.2523H14.1958H14.5767V28.9568H5.71876C5.49816 28.9884 5.28101 29.0402 5.06998 29.1118C4.9061 29.1329 4.74006 29.1329 4.57617 29.1118C3.64382 28.8912 2.80457 28.3835 2.17685 27.6603C1.54914 26.9371 1.16476 26.0351 1.07818 25.0818C1.07818 24.5041 1.07818 23.9123 1.07818 23.3345C1.07818 17.5197 1.07818 11.7001 1.07818 5.87589C1.06771 5.22143 1.16307 4.56959 1.36038 3.94544C1.40191 3.78543 1.45858 3.6297 1.52963 3.48041C1.60964 3.29941 1.7039 3.12507 1.81166 2.95906C1.94606 2.71739 2.11205 2.49471 2.3053 2.29682C2.43583 2.15014 2.57735 2.01357 2.72852 1.88822C2.92253 1.72101 3.13004 1.57017 3.34905 1.4373L3.68756 1.25411C4.02578 1.08205 4.3867 0.958687 4.75955 0.887734C5.00945 0.831079 5.26501 0.802722 5.52127 0.803192C7.14333 0.803192 8.76533 0.803192 10.3874 0.803192H10.5567L10.4156 1.93045Z" fill="#47B863"/>
</svg>
