<svg width="170" height="114" viewBox="0 0 170 114" fill="none" xmlns="http://www.w3.org/2000/svg">
<g clip-path="url(#clip0_2455_90245)">
<path d="M149.946 54.5902C145.453 56.8322 139.489 53.9493 139.489 53.9493C139.489 53.9493 140.814 47.4329 145.31 45.1939C149.803 42.9519 155.765 45.8316 155.765 45.8316C155.765 45.8316 154.439 52.3482 149.946 54.5902Z" fill="#F2F5FF"/>
<path d="M85.2694 106.803C112.614 106.803 134.782 84.5055 134.782 56.9999C134.782 29.4943 112.614 7.19653 85.2694 7.19653C57.9247 7.19653 35.7573 29.4943 35.7573 56.9999C35.7573 84.5055 57.9247 106.803 85.2694 106.803Z" fill="#F2F5FF"/>
<path d="M126.259 98.8219C125.497 98.8219 124.879 98.2004 124.879 97.4338C124.879 96.6671 125.497 96.0457 126.259 96.0457C127.021 96.0457 127.639 96.6671 127.639 97.4338C127.639 98.2004 127.021 98.8219 126.259 98.8219Z" fill="#4A72FF"/>
<path d="M29.7977 85.025C28.6968 85.025 27.8043 84.1273 27.8043 83.02C27.8043 81.9126 28.6968 81.0149 29.7977 81.0149C30.8986 81.0149 31.791 81.9126 31.791 83.02C31.791 84.1273 30.8986 85.025 29.7977 85.025Z" fill="#4A72FF"/>
<path d="M137.085 72.0408C136.229 72.0408 135.535 71.4824 135.535 70.7935C135.535 70.1046 136.229 69.5461 137.085 69.5461C137.941 69.5461 138.635 70.1046 138.635 70.7935C138.635 71.4824 137.941 72.0408 137.085 72.0408Z" fill="#B4C4FF"/>
<path d="M148.84 62.1794H148.88C149.12 65.6015 151.65 65.6542 151.65 65.6542C151.65 65.6542 148.86 65.7089 148.86 69.6632C148.86 65.7089 146.07 65.6542 146.07 65.6542C146.07 65.6542 148.599 65.6015 148.84 62.1794ZM46.9287 95.4481H46.9646C47.1777 98.5453 49.4228 98.5929 49.4228 98.5929C49.4228 98.5929 46.9473 98.6425 46.9473 102.221C46.9473 98.6425 44.4717 98.5929 44.4717 98.5929C44.4717 98.5929 46.7157 98.5453 46.9287 95.4481Z" fill="#B4C4FF"/>
<path d="M22.3155 70.9758C28.1864 74.5151 36.6093 71.2433 36.6093 71.2433C36.6093 71.2433 35.5079 62.2343 29.6335 58.699C23.7626 55.1595 15.3433 58.4275 15.3433 58.4275C15.3433 58.4275 16.4445 67.4365 22.3155 70.9758Z" fill="#F2F5FF"/>
<path d="M48.6994 50.7687C47.1751 50.7687 45.9394 52.0117 45.9394 53.545C45.9394 55.0783 47.1751 56.3213 48.6994 56.3213C50.2238 56.3213 51.4595 55.0783 51.4595 53.545C51.4595 52.0117 50.2238 50.7687 48.6994 50.7687Z" fill="#4A72FF"/>
<path d="M35.828 50.9301C36.0445 51.7429 35.565 52.5783 34.7569 52.7961C33.9489 53.0139 33.1183 52.5316 32.9018 51.7188C32.6853 50.906 33.1648 50.0705 33.9729 49.8527C34.7809 49.6349 35.6115 50.1173 35.828 50.9301Z" fill="#B4C4FF"/>
<path d="M120.064 50.3373C119.471 50.3373 118.991 49.8538 118.991 49.2575C118.991 48.6612 119.471 48.1777 120.064 48.1777C120.657 48.1777 121.138 48.6612 121.138 49.2575C121.138 49.8538 120.657 50.3373 120.064 50.3373Z" fill="#4A72FF"/>
<path d="M141.105 37.0988C139.75 37.0988 138.652 38.2038 138.652 39.5668C138.652 40.9297 139.75 42.0347 141.105 42.0347C142.46 42.0347 143.559 40.9297 143.559 39.5668C143.559 38.2038 142.46 37.0988 141.105 37.0988Z" fill="#4A72FF"/>
<path d="M30.2087 39.5406C28.9384 39.5406 27.9086 38.5047 27.9086 37.227C27.9086 35.9492 28.9384 34.9133 30.2087 34.9133C31.479 34.9133 32.5088 35.9492 32.5088 37.227C32.5088 38.5047 31.479 39.5406 30.2087 39.5406Z" fill="#4A72FF"/>
<path d="M126.507 33.7674C125.575 33.7674 124.82 33.0078 124.82 32.0707C124.82 31.1337 125.575 30.374 126.507 30.374C127.439 30.374 128.194 31.1337 128.194 32.0707C128.194 33.0078 127.439 33.7674 126.507 33.7674Z" fill="#B4C4FF"/>
<path d="M52.8495 33.3136C52.0116 33.3136 51.3324 32.6304 51.3324 31.7876C51.3324 30.9447 52.0116 30.2615 52.8495 30.2615C53.6874 30.2615 54.3667 30.9447 54.3667 31.7876C54.3667 32.6304 53.6874 33.3136 52.8495 33.3136Z" fill="#B4C4FF"/>
<path d="M128.204 24.3779H42.5608C42.1232 24.3779 41.7686 24.7347 41.7686 25.1748V89.006C41.7686 89.4461 42.1232 89.8029 42.5608 89.8029H128.204C128.641 89.8029 128.996 89.4461 128.996 89.006V25.1748C128.996 24.7347 128.641 24.3779 128.204 24.3779Z" fill="white" stroke="#94ABFF" stroke-width="1.04914"/>
<path d="M76.4196 47.114V51.6725M94.5487 47.114V51.6725M101.311 72.2647C101.311 72.2647 95.3721 66.5371 85.4673 66.5371C75.5628 66.5371 69.6235 72.2647 69.6235 72.2647" stroke="#4A72FF" stroke-width="4.85714" stroke-linecap="round" stroke-linejoin="round"/>
<path d="M128.204 24.3779H42.5608C42.1232 24.3779 41.7686 24.7347 41.7686 25.1748V31.1887C41.7686 31.6288 42.1232 31.9855 42.5608 31.9855H128.204C128.641 31.9855 128.996 31.6288 128.996 31.1887V25.1748C128.996 24.7347 128.641 24.3779 128.204 24.3779Z" fill="white" stroke="#94ABFF" stroke-width="1.04914"/>
<path d="M55.1303 26.9133H55.1301C54.434 26.9133 53.8696 27.481 53.8696 28.1812V28.1814C53.8696 28.8816 54.434 29.4493 55.1301 29.4493H55.1303C55.8264 29.4493 56.3907 28.8816 56.3907 28.1814V28.1812C56.3907 27.481 55.8264 26.9133 55.1303 26.9133Z" fill="white" stroke="#B4C4FF" stroke-width="1.10003"/>
<path d="M50.5927 26.9133H50.5925C49.8964 26.9133 49.332 27.481 49.332 28.1812V28.1814C49.332 28.8816 49.8964 29.4493 50.5925 29.4493H50.5927C51.2888 29.4493 51.8531 28.8816 51.8531 28.1814V28.1812C51.8531 27.481 51.2888 26.9133 50.5927 26.9133Z" fill="white" stroke="#B4C4FF" stroke-width="1.10003"/>
<path d="M46.0546 26.9133H46.0544C45.3583 26.9133 44.7939 27.481 44.7939 28.1812V28.1814C44.7939 28.8816 45.3583 29.4493 46.0544 29.4493H46.0546C46.7507 29.4493 47.315 28.8816 47.315 28.1814V28.1812C47.315 27.481 46.7507 26.9133 46.0546 26.9133Z" fill="white" stroke="#B4C4FF" stroke-width="1.10003"/>
<path d="M72.8267 21.0116C71.7138 21.0116 70.8117 20.1041 70.8117 18.9847C70.8117 17.8652 71.7138 16.9578 72.8267 16.9578C73.9396 16.9578 74.8418 17.8652 74.8418 18.9847C74.8418 20.1041 73.9396 21.0116 72.8267 21.0116Z" fill="#B4C4FF"/>
<path d="M110.895 18.0709C111.345 19.7625 110.347 21.5012 108.666 21.9544C106.984 22.4077 105.255 21.4039 104.805 19.7123C104.354 18.0207 105.352 16.282 107.034 15.8287C108.715 15.3755 110.444 16.3793 110.895 18.0709Z" fill="#B4C4FF"/>
</g>
<defs>
<clipPath id="clip0_2455_90245">
<rect width="170" height="114" fill="white"/>
</clipPath>
</defs>
</svg>
