<svg width="94" height="100" viewBox="0 0 94 100" fill="none" xmlns="http://www.w3.org/2000/svg">
<g clip-path="url(#clip0_345_17)">
<path d="M27.305 50C35.8865 50 42.9078 42.5 42.9078 33.3334C42.9078 24.1667 35.8865 16.6667 27.305 16.6667C18.7234 16.6667 11.7021 24.1667 11.7021 33.3334C11.7021 42.5 18.7234 50 27.305 50ZM42.9078 83.3334V61.25C38.617 59.5834 33.156 58.3334 27.305 58.3334C12.0922 58.3334 0 65.8334 0 75V83.3334H42.9078ZM85.8156 16.6667H58.5106C54.2199 16.6667 50.7092 20.4167 50.7092 25V75C50.7092 79.5834 54.2199 83.3334 58.5106 83.3334H85.8156C90.1064 83.3334 93.617 79.5834 93.617 75V25C93.617 20.4167 90.1064 16.6667 85.8156 16.6667ZM70.2128 75H62.4113V25H70.2128V75Z" fill="#FBBC05"/>
</g>
<defs>
<clipPath id="clip0_345_17">
<rect width="93.617" height="100" fill="white"/>
</clipPath>
</defs>
</svg>
