<svg width="31" height="33" viewBox="0 0 31 33" fill="none" xmlns="http://www.w3.org/2000/svg">
<path d="M27.5 15.165V6C27.5 5.20435 27.1839 4.44129 26.6213 3.87868C26.0587 3.31607 25.2956 3 24.5 3H18.23C17.6 1.26 15.95 0 14 0C12.05 0 10.4 1.26 9.77 3H3.5C1.85 3 0.5 4.35 0.5 6V27C0.5 27.7956 0.81607 28.5587 1.37868 29.1213C1.94129 29.6839 2.70435 30 3.5 30H12.665C14.555 31.86 17.135 33 20 33C25.805 33 30.5 28.305 30.5 22.5C30.5 19.635 29.36 17.055 27.5 15.165ZM14 3C14.825 3 15.5 3.675 15.5 4.5C15.5 5.325 14.825 6 14 6C13.175 6 12.5 5.325 12.5 4.5C12.5 3.675 13.175 3 14 3ZM3.5 27V6H6.5V9H21.5V6H24.5V13.02C23.135 12.375 21.62 12 20 12H6.5V15H12.65C11.75 15.855 11.06 16.875 10.52 18H6.5V21H9.62C9.545 21.495 9.5 21.99 9.5 22.5C9.5 24.12 9.875 25.635 10.52 27H3.5ZM20 30C15.86 30 12.5 26.64 12.5 22.5C12.5 18.36 15.86 15 20 15C24.14 15 27.5 18.36 27.5 22.5C27.5 26.64 24.14 30 20 30ZM20.75 22.875L25.04 25.41L23.915 27.24L18.5 24V16.5H20.75V22.875Z" fill="black" fill-opacity="0.54"/>
</svg>
