<svg width="48" height="49" viewBox="0 0 48 49" fill="none" xmlns="http://www.w3.org/2000/svg">
<rect x="0.5" y="1" width="47" height="47" rx="9.5" fill="#F9F9F9" stroke="#C6C6C6"/>
<path d="M20.5171 11.8747L15.3779 17.0757C15.2581 17.1969 15.163 17.3408 15.0982 17.4992C15.0334 17.6576 15 17.8274 15 17.9988C15 18.3451 15.1359 18.6771 15.3779 18.922C15.6198 19.1668 15.9479 19.3044 16.2901 19.3044C16.6322 19.3044 16.9603 19.1668 17.2023 18.922L20.1445 15.9314V31.0012C20.1445 31.346 20.2798 31.6767 20.5208 31.9206C20.7617 32.1644 21.0885 32.3014 21.4293 32.3014C21.77 32.3014 22.0968 32.1644 22.3378 31.9206C22.5787 31.6767 22.7141 31.346 22.7141 31.0012V12.7979C22.7128 12.5412 22.6365 12.2906 22.4948 12.0777C22.353 11.8649 22.1521 11.6992 21.9175 11.6017C21.6835 11.5021 21.4257 11.4749 21.1764 11.5235C20.9272 11.5721 20.6978 11.6943 20.5171 11.8747ZM25.2837 17.9988V36.2021C25.285 36.4588 25.3613 36.7094 25.5031 36.9223C25.6448 37.1351 25.8457 37.3008 26.0803 37.3983C26.3143 37.4979 26.5721 37.5251 26.8214 37.4765C27.0706 37.4279 27.3001 37.3057 27.4807 37.1253L32.62 31.9243C32.7404 31.8035 32.836 31.6597 32.9012 31.5012C32.9664 31.3428 33 31.1728 33 31.0012C33 30.8295 32.9664 30.6596 32.9012 30.5011C32.836 30.3427 32.7404 30.1989 32.62 30.078C32.5005 29.9561 32.3584 29.8594 32.2019 29.7934C32.0453 29.7274 31.8774 29.6934 31.7077 29.6934C31.5381 29.6934 31.3702 29.7274 31.2136 29.7934C31.0571 29.8594 30.915 29.9561 30.7955 30.078L27.8533 33.0686V17.9988C27.8533 17.654 27.718 17.3233 27.477 17.0794C27.2361 16.8356 26.9093 16.6986 26.5685 16.6986C26.2278 16.6986 25.901 16.8356 25.66 17.0794C25.4191 17.3233 25.2837 17.654 25.2837 17.9988Z" fill="#999999"/>
</svg>
