<svg width="84" height="68" viewBox="0 0 84 68" fill="none" xmlns="http://www.w3.org/2000/svg">
<path d="M46.1666 19.4167H37.8333V11.0834H46.1666V19.4167ZM46.1666 38.1667H37.8333V29.8334H46.1666V38.1667ZM46.1666 56.9167H37.8333V48.5834H46.1666V56.9167ZM83.6666 25.6667V9.00002C83.6666 6.78988 82.7886 4.67027 81.2258 3.10746C79.663 1.54466 77.5434 0.666687 75.3333 0.666687H8.66659C6.45645 0.666687 4.33683 1.54466 2.77403 3.10746C1.21123 4.67027 0.333252 6.78988 0.333252 9.00002V25.6667C2.54339 25.6667 4.66301 26.5447 6.22581 28.1075C7.78861 29.6703 8.66659 31.7899 8.66659 34C8.66659 36.2102 7.78861 38.3298 6.22581 39.8926C4.66301 41.4554 2.54339 42.3334 0.333252 42.3334V59C0.333252 61.2102 1.21123 63.3298 2.77403 64.8926C4.33683 66.4554 6.45645 67.3334 8.66659 67.3334H75.3333C77.5434 67.3334 79.663 66.4554 81.2258 64.8926C82.7886 63.3298 83.6666 61.2102 83.6666 59V42.3334C81.4565 42.3334 79.3368 41.4554 77.774 39.8926C76.2112 38.3298 75.3333 36.2102 75.3333 34C75.3333 31.7899 76.2112 29.6703 77.774 28.1075C79.3368 26.5447 81.4565 25.6667 83.6666 25.6667Z" fill="#FBBC05"/>
</svg>
