<svg width="100" height="100" viewBox="0 0 100 100" fill="none" xmlns="http://www.w3.org/2000/svg">
<path d="M16.6667 66.6667C16.6667 70.3333 18.2917 73.625 20.8334 75.9167V87.5H33.3334V79.1667H66.6668V87.5H79.1668V75.9167C81.7084 73.625 83.3335 70.3333 83.3335 66.6667V25C83.3335 10.4166 68.4168 8.33331 50.0001 8.33331C31.5834 8.33331 16.6667 10.4166 16.6667 25V66.6667ZM31.2501 70.8333C27.7918 70.8333 25.0001 68.0417 25.0001 64.5833C25.0001 61.125 27.7918 58.3333 31.2501 58.3333C34.7084 58.3333 37.5001 61.125 37.5001 64.5833C37.5001 68.0417 34.7084 70.8333 31.2501 70.8333ZM68.7501 70.8333C65.2918 70.8333 62.5001 68.0417 62.5001 64.5833C62.5001 61.125 65.2918 58.3333 68.7501 58.3333C72.2084 58.3333 75.0001 61.125 75.0001 64.5833C75.0001 68.0417 72.2084 70.8333 68.7501 70.8333ZM75.0001 45.8333H25.0001V25H75.0001V45.8333Z" fill="#FBBC05"/>
</svg>
