<svg width="16" height="17" viewBox="0 0 16 17" fill="none" xmlns="http://www.w3.org/2000/svg">
<path d="M10.1162 12.4412C11.6284 10.2045 13.5396 7.06 13.5396 5.44367C13.5396 2.71714 11.0535 0.5 7.99634 0.5C4.93913 0.5 2.45309 2.71714 2.45309 5.44367C2.45309 7.06 4.3643 10.2045 5.87643 12.4412C4.08238 12.562 0 12.9963 0 14.4363C0 15.8535 4.14462 16.5 8 16.5C11.8517 16.5 16 15.8535 16 14.4363C15.9963 12.9963 11.9103 12.562 10.1162 12.4412ZM3.21831 5.44367C3.21831 3.09265 5.36384 1.17918 7.99634 1.17918C10.6325 1.17918 12.778 3.09265 12.778 5.44367C12.778 7.49755 9.10938 12.6502 7.99634 14.1653C6.88329 12.6502 3.21831 7.49755 3.21831 5.44367ZM7.99634 15.8176C3.3135 15.8176 0.761556 14.9033 0.761556 14.4331C0.761556 14.0706 2.44577 13.2902 6.32677 13.091C7.05538 14.1392 7.60824 14.8804 7.68146 14.9686C7.78032 15.0861 8.06956 15.2265 8.31487 14.9686C8.39176 14.8869 8.94096 14.1392 9.66957 13.091C13.5506 13.2902 15.2348 14.0673 15.2348 14.4331C15.2311 14.9065 12.6792 15.8176 7.99634 15.8176Z" fill="#C6C6C6"/>
<path d="M10.4091 5.44383C10.4091 4.25526 9.32903 3.29199 7.99631 3.29199C6.66359 3.29199 5.5835 4.25526 5.5835 5.44383C5.5835 6.6324 6.66359 7.59567 7.99631 7.59567C9.32903 7.59567 10.4091 6.6324 10.4091 5.44383ZM6.34505 5.44383C6.34505 4.63077 7.08464 3.97118 7.99631 3.97118C8.90798 3.97118 9.64757 4.63077 9.64757 5.44383C9.64757 6.25689 8.90798 6.91648 7.99631 6.91648C7.08464 6.91648 6.34505 6.25689 6.34505 5.44383Z" fill="#C6C6C6"/>
</svg>
